#!OML:ASF H:\Pregnant\Project 1\Capture day 1\Session 1\femalepreg.ASF
:FULLY-SPECIFIED
:DEGREES
1263
root -9.91746 15.616 -2.49584 18.1968 0.710609 354.506
lowerback -14.2988 -0.242549 3.33277
upperback -4.51587 -0.887997 2.35711
thorax 3.23192 -0.435977 0.436933
lowerneck -13.2236 4.88393 7.46859
upperneck 37.4057 6.38857 -3.20192
head 15.8355 3.32193 -1.59373
rclavicle -2.7395e-015 6.95746e-016
rhumerus -30.7555 2.3464 -78.8767
rradius 29.6713
rwrist -2.70407
rhand -13.8511 -14.597
rfingers 7.12502
rthumb 12.2727 -44.2169
lclavicle -2.7395e-015 6.95746e-016
lhumerus -36.5694 -1.36656 81.3285
lradius 31.0373
lwrist 40.9955
lhand -16.6123 -7.79933
lfingers 7.12502
lthumb 9.60941 21.9615
rfemur -9.14726 14.4112 28.4516
rtibia 26.5743
rfoot -16.9056 -16.7118
rtoes -31.9469
lfemur -52.2868 -10.69 -8.55806
ltibia 25.6671
lfoot 3.11291 1.33318
ltoes -21.7211
1264
root -9.89905 15.608 -2.36161 18.1654 0.710544 354.51
lowerback -14.521 -0.346914 2.85613
upperback -4.42684 -0.968695 2.26419
thorax 3.45157 -0.473167 0.592534
lowerneck -13.0916 4.88671 7.4987
upperneck 37.4363 6.34622 -3.07753
head 15.8124 3.32587 -1.55641
rclavicle 6.17785e-015 -1.03617e-014
rhumerus -31.0544 2.1466 -78.7939
rradius 29.619
rwrist -2.70352
rhand -14.055 -14.6229
rfingers 7.12502
rthumb 12.0761 -44.2545
lclavicle 6.17785e-015 -1.03617e-014
lhumerus -36.2666 -1.61807 81.4736
lradius 30.4635
lwrist 40.6852
lhand -16.1119 -7.77099
lfingers 7.12502
lthumb 10.0922 21.967
rfemur -8.64412 14.5078 28.5111
rtibia 26.6925
rfoot -16.5649 -16.6084
rtoes -32.6417
lfemur -52.3315 -10.6625 -8.85131
ltibia 26.553
lfoot 3.69851 0.899116
ltoes -21.1513
1265
root -9.88117 15.6008 -2.22869 18.1172 0.736219 354.601
lowerback -14.7031 -0.47723 2.27466
upperback -4.33537 -1.06292 2.1573
thorax 3.65478 -0.518527 0.790196
lowerneck -12.973 4.88074 7.50188
upperneck 37.4687 6.28997 -2.93282
head 15.7901 3.3227 -1.50786
rclavicle -3.86077e-015 5.96354e-015
rhumerus -31.3728 1.87586 -78.68
rradius 29.5585
rwrist -2.71681
rhand -14.3359 -14.673
rfingers 7.12502
rthumb 11.8052 -44.3203
lclavicle -3.86077e-015 5.96354e-015
lhumerus -35.9467 -1.86535 81.6191
lradius 29.8552
lwrist 40.3243
lhand -15.6363 -7.68614
lfingers 7.12502
lthumb 10.5511 22.029
rfemur -8.25314 14.5584 28.4984
rtibia 27.0369
rfoot -16.2401 -16.521
rtoes -33.3539
lfemur -52.3281 -10.7096 -9.21167
ltibia 27.3751
lfoot 4.05094 0.480786
ltoes -20.4423
1266
root -9.86424 15.5944 -2.09806 18.0504 0.789393 354.784
lowerback -14.8165 -0.631451 1.58631
upperback -4.25492 -1.16593 2.02653
thorax 3.81219 -0.570173 1.02197
lowerneck -12.8612 4.86439 7.49444
upperneck 37.5082 6.2139 -2.76964
head 15.7704 3.31216 -1.4529
rclavicle -5.65294e-016 -1.21259e-014
rhumerus -31.74 1.52585 -78.541
rradius 29.495
rwrist -2.74042
rhand -14.6854 -14.6984
rfingers 7.12502
rthumb 11.4682 -44.3647
lclavicle -5.65294e-016 -1.21259e-014
lhumerus -35.6315 -2.12781 81.7566
lradius 29.2262
lwrist 39.9184
lhand -15.2392 -7.50085
lfingers 7.12502
lthumb 10.934 22.1944
rfemur -7.98981 14.548 28.4065
rtibia 27.6292
rfoot -15.9445 -16.438
rtoes -34.0452
lfemur -52.2573 -10.8387 -9.64043
ltibia 28.1288
lfoot 4.18166 0.113694
ltoes -19.7169
1267
root -9.8484 15.589 -1.97018 17.965 0.864657 355.054
lowerback -14.8484 -0.801448 0.802169
upperback -4.19289 -1.26928 1.86629
thorax 3.90913 -0.623728 1.2777
lowerneck -12.7489 4.83332 7.48043
upperneck 37.5576 6.11023 -2.5861
head 15.7526 3.29197 -1.39297
rclavicle -1.85367e-014 1.11319e-014
rhumerus -32.1717 1.07814 -78.3737
rradius 29.4383
rwrist -2.73269
rhand -15.0466 -14.7324
rfingers 7.12502
rthumb 11.1198 -44.4177
lclavicle -1.85367e-014 1.11319e-014
lhumerus -35.3334 -2.42318 81.8816
lradius 28.5861
lwrist 39.4771
lhand -14.9409 -7.22191
lfingers 7.12502
lthumb 11.2217 22.458
rfemur -7.86502 14.4583 28.2356
rtibia 28.4742
rfoot -15.6914 -16.3287
rtoes -34.684
lfemur -52.1111 -11.0445 -10.1313
ltibia 28.8093
lfoot 4.09884 -0.144944
ltoes -18.8898
1268
root -9.83369 15.5851 -1.84492 17.8655 0.951269 355.394
lowerback -14.8113 -0.983061 -0.0717548
upperback -4.14726 -1.37171 1.6907
thorax 3.95483 -0.677996 1.56931
lowerneck -12.6293 4.7894 7.45774
upperneck 37.612 5.98815 -2.39613
head 15.7339 3.26387 -1.33212
rclavicle 1.08959e-014 -6.36111e-015
rhumerus -32.669 0.587303 -78.1826
rradius 29.387
rwrist -2.78168
rhand -15.4625 -14.7397
rfingers 7.12502
rthumb 10.7186 -44.4463
lclavicle 1.08959e-014 -6.36111e-015
lhumerus -35.0538 -2.72614 81.9996
lradius 27.9426
lwrist 38.998
lhand -14.6936 -6.90676
lfingers 7.12502
lthumb 11.4602 22.76
rfemur -7.88008 14.2892 27.9946
rtibia 29.557
rfoot -15.4602 -16.1686
rtoes -35.2631
lfemur -51.8913 -11.2989 -10.6788
ltibia 29.4073
lfoot 3.8551 -0.310011
ltoes -18.1122
1269
root -9.81982 15.5832 -1.72185 17.762 1.03636 355.781
lowerback -14.7185 -1.16034 -0.999938
upperback -4.1197 -1.45965 1.49418
thorax 3.95319 -0.725503 1.87341
lowerneck -12.5072 4.73105 7.44278
upperneck 37.6741 5.84088 -2.2017
head 15.7175 3.22705 -1.27508
rclavicle 4.96962e-015 -6.75868e-015
rhumerus -33.2284 0.020118 -77.9614
rradius 29.3407
rwrist -2.8076
rhand -15.8336 -14.7881
rfingers 7.12502
rthumb 10.3607 -44.5129
lclavicle 4.96962e-015 -6.75868e-015
lhumerus -34.7907 -3.05443 82.1011
lradius 27.3037
lwrist 38.4888
lhand -14.4994 -6.55278
lfingers 7.12502
lthumb 11.6476 23.1035
rfemur -8.03219 14.037 27.6956
rtibia 30.8451
rfoot -15.218 -15.9188
rtoes -35.7869
lfemur -51.6069 -11.5648 -11.2735
ltibia 29.9157
lfoot 3.5156 -0.408002
ltoes -17.5362
1270
root -9.80629 15.5837 -1.60049 17.6658 1.10504 356.181
lowerback -14.5958 -1.32263 -1.94506
upperback -4.10813 -1.52705 1.28787
thorax 3.91905 -0.762534 2.18135
lowerneck -12.3795 4.6577 7.4222
upperneck 37.7423 5.67112 -2.00143
head 15.7014 3.18093 -1.21846
rclavicle 7.30534e-015 1.15295e-014
rhumerus -33.8319 -0.621969 -77.6961
rradius 29.2983
rwrist -2.74717
rhand -16.128 -14.8698
rfingers 7.12502
rthumb 10.0767 -44.6085
lclavicle 7.30534e-015 1.15295e-014
lhumerus -34.5377 -3.38757 82.1859
lradius 26.6758
lwrist 37.9531
lhand -14.3448 -6.1843
lfingers 7.12502
lthumb 11.7966 23.4635
rfemur -8.31876 13.7137 27.3588
rtibia 32.2978
rfoot -14.9124 -15.5488
rtoes -36.2626
lfemur -51.2642 -11.8068 -11.8902
ltibia 30.3309
lfoot 3.12919 -0.479449
ltoes -17.1029
1271
root -9.79266 15.5867 -1.48012 17.5784 1.14216 356.566
lowerback -14.4633 -1.45816 -2.87017
upperback -4.10477 -1.56475 1.07663
thorax 3.86919 -0.784199 2.47847
lowerneck -12.2596 4.57278 7.40096
upperneck 37.8189 5.48283 -1.79858
head 15.6907 3.12731 -1.16344
rclavicle -2.58669e-014 0
rhumerus -34.4664 -1.29651 -77.4117
rradius 29.2465
rwrist -2.71417
rhand -16.456 -14.885
rfingers 7.12502
rthumb 9.76022 -44.6388
lclavicle -2.58669e-014 0
lhumerus -34.2801 -3.71181 82.2456
lradius 26.0607
lwrist 37.3811
lhand -14.2013 -5.81438
lfingers 7.12502
lthumb 11.935 23.8254
rfemur -8.7214 13.3292 27.005
rtibia 33.8736
rfoot -14.4925 -15.0379
rtoes -36.6969
lfemur -50.8591 -11.9991 -12.5057
ltibia 30.6551
lfoot 2.69442 -0.530499
ltoes -16.7704
